<?xml version="1.0" encoding="utf-8"?>
<!-- Generator: Adobe Illustrator 27.0.0, SVG Export Plug-In . SVG Version: 6.00 Build 0)  -->
<svg version="1.1" id="Layer_1" xmlns="http://www.w3.org/2000/svg" xmlns:xlink="http://www.w3.org/1999/xlink" x="0px" y="0px"
	 viewBox="0 0 612 792" style="enable-background:new 0 0 612 792;" xml:space="preserve">
<style type="text/css">
	.st0{fill:#1571AC;}
</style>
<g>
	<path class="st0" d="M306.83,232.45c29.37,0,58.76-0.71,88.1,0.18c36.85,1.11,70.21,32.17,75.28,68.74
		c0.67,4.81,1.02,9.7,1.03,14.56c0.07,53.87,0.12,107.73,0.02,161.6c-0.08,39.8-25.33,72.32-63.37,81.46
		c-6.37,1.53-13.1,2.15-19.66,2.17c-54.37,0.17-108.73,0.16-163.1,0.08c-42.55-0.06-77.37-30.95-82.44-73
		c-0.42-3.46-0.45-6.99-0.45-10.48c-0.03-53.99-0.1-107.98,0.01-161.97c0.07-36.73,22.03-67.68,55.97-79.26
		c8.83-3.01,17.92-4.31,27.25-4.28c27.12,0.06,54.24,0.02,81.36,0.02C306.83,232.32,306.83,232.38,306.83,232.45z M245.69,377.94
		c0.74-0.22,1.07-0.41,1.4-0.41c33.25-0.01,66.5-0.32,99.75,0.13c18.58,0.25,34.16,12.84,39.2,30.07
		c4.78,16.33-1.5,34.19-15.69,44.4c-7.33,5.28-15.57,7.7-24.59,7.69c-27.37-0.04-54.75-0.03-82.12,0
		c-7.43,0.01-12.31,3.41-13.92,9.56c-2.62,9.96,3.29,17.87,13.72,17.9c28,0.1,56,0.08,84-0.03c3.97-0.01,7.98-0.56,11.91-1.22
		c35.34-5.89,59.77-37.76,56.84-74.05c-2.79-34.55-31.77-61.44-67.09-61.73c-33.12-0.28-66.25-0.08-99.37-0.09
		c-1.25,0-2.49,0-3.74,0c5.97-7.13,12.3-13.15,18.38-19.42c5.54-5.73,5.3-13.67-0.25-19.1c-5.47-5.36-13.26-5.55-18.82-0.06
		c-14.41,14.23-28.73,28.55-42.95,42.96c-5.33,5.4-5.39,13.11-0.06,18.53c14.21,14.43,28.53,28.75,42.94,42.97
		c5.59,5.51,13.38,5.35,18.82,0.06c5.59-5.44,5.86-13.32,0.37-19.11c-5.25-5.53-10.75-10.81-16.13-16.22
		C247.44,379.93,246.68,379.02,245.69,377.94z"/>
</g>
</svg>
