<svg xmlns="http://www.w3.org/2000/svg" xmlns:xlink="http://www.w3.org/1999/xlink" version="1.1" id="Layer_1" x="0px" y="0px" style="enable-background:new 0 0 612 792;" xml:space="preserve" viewBox="101.8 202.64 408.83 388.58">
<style type="text/css">
	.st0{fill:#1571AC;}
</style>
<g>
	<path class="st0" d="M101.8,394.6c0-2.66,0-5.32,0-7.98c2.71-4.15,4.7-9.09,8.25-12.34c60.14-55.1,120.46-110.01,180.78-164.91   c9.86-8.97,20.89-8.98,30.73-0.02c60.32,54.9,120.6,109.85,180.88,164.8c7.73,7.05,10,15.44,6.75,24.05   c-3.31,8.75-10.72,13.54-21.35,13.64c-7.72,0.07-15.44,0.01-23.15,0.03c-1.39,0-2.78,0.14-4.37,0.23c0,2.04,0,3.62,0,5.21   c0,53.23,0,106.45,0,159.68c0,9.72-4.42,14.2-14.06,14.21c-32.07,0.02-64.14,0.02-96.21,0c-9.92-0.01-14.29-4.43-14.29-14.4   c-0.01-31.54,0-63.07,0-94.61c0-1.42,0-2.84,0-4.29c-19.93,0-39.4,0-59.08,0c0,1.73,0,3.18,0,4.63c0,31.14,0,62.27,0,93.41   c0,11.12-4.07,15.26-15.03,15.26c-31.54,0.01-63.07,0.01-94.61,0c-10.76,0-14.93-4.18-14.93-14.95c0-53.09,0-106.19,0-159.28   c0-1.56,0-3.12,0-5.11c-9.44,0-18.45-0.02-27.46,0.01c-7.78,0.02-14.46-2.39-18.91-9.08C104.05,400.3,103.08,397.34,101.8,394.6z"/>
	<path class="st0" d="M376.73,226.97c2.21-0.1,3.36-0.19,4.52-0.19c24.48-0.01,48.96-0.02,73.44,0   c10.18,0.01,14.46,4.34,14.47,14.59c0.01,21.69,0,43.37,0,65.06c0,1.17,0,2.34,0,4.58C438.15,282.81,407.81,255.24,376.73,226.97z"/>
</g>
</svg>