<svg xmlns="http://www.w3.org/2000/svg" xmlns:xlink="http://www.w3.org/1999/xlink" version="1.1" id="Layer_1" x="0px" y="0px" style="enable-background:new 0 0 612 792;" xml:space="preserve" viewBox="101.8 192.21 408.79 409.21">
<style type="text/css">
	.st0{fill:#1571AC;}
</style>
<g>
	<path class="st0" d="M101.8,352.29c1.68-5.7,5.75-8.78,11.11-10.91c37.51-14.9,74.96-29.93,112.44-44.91   c1.21-0.48,2.45-0.89,4.2-1.52c0,1.79,0,3.19,0,4.59c0,84.19-0.02,168.38,0.09,252.57c0,3.34-1.06,4.79-4.07,5.98   c-35.54,14.09-71.04,28.31-106.54,42.51c-0.46,0.18-0.84,0.54-1.26,0.82c-1.86,0-3.73,0-5.59,0c-5.02-1.5-8.23-4.96-10.38-9.58   C101.8,511.97,101.8,432.13,101.8,352.29z"/>
	<path class="st0" d="M382.85,601.4c0-58.64,0-117.28,0-177.07c3.5,3.93,6.33,7.11,9.16,10.3c7.44,8.37,16.73,13.06,27.94,13.39   c12.31,0.36,22.5-4.42,30.6-13.65c21.08-24.02,40.82-49.05,57.5-76.39c0.55-0.9,1.14-1.78,2.25-3.49c0.14,1.85,0.28,2.9,0.28,3.94   c0.01,60.39,0.02,120.79,0,181.18c0,7.98-2.59,11.72-10.25,14.78c-37.71,15.12-75.44,30.21-113.15,45.33   c-1.21,0.49-2.36,1.13-3.54,1.69C383.38,601.4,383.12,601.4,382.85,601.4z"/>
	<path class="st0" d="M357.3,597.25c-34.45-13.78-68.21-27.27-102.05-40.81c0-87.06,0-174.02,0-261.39c1.38,0.48,2.6,0.86,3.78,1.33   c17.39,6.93,34.79,13.84,52.13,20.89c1.54,0.63,3.3,1.97,3.9,3.43c10.09,24.37,24.2,46.36,39.62,67.58   c1.9,2.61,2.69,5.18,2.68,8.41c-0.08,65.17-0.06,130.34-0.06,195.52C357.3,593.66,357.3,595.11,357.3,597.25z"/>
	<path class="st0" d="M421.3,192.21c42.35,0.55,79.47,31.06,87.6,72.09c3.35,16.93,0.9,32.96-5.86,48.64   c-7.94,18.41-18.03,35.61-29.95,51.6c-13.26,17.79-27.29,35-41.22,52.29c-6.13,7.61-14.69,7.76-20.87,0.66   c-22.73-26.12-44.09-53.25-61.23-83.46c-6.56-11.57-12.27-23.54-15.67-36.5c-4.68-17.78-2.07-34.97,5.31-51.32   c12.45-27.6,33.82-44.82,63.35-51.6C408.8,193.23,415.11,192.98,421.3,192.21z M420.58,320.31c20.67,0.61,38.35-16.58,38.88-37.79   c0.51-20.59-16.26-37.93-37.5-38.77c-20.59-0.81-38.33,16.25-39.07,37.58C382.18,301.96,399.31,319.67,420.58,320.31z"/>
</g>
</svg>