<svg xmlns="http://www.w3.org/2000/svg" xmlns:xlink="http://www.w3.org/1999/xlink" version="1.1" id="Layer_1" x="0px" y="0px" style="enable-background:new 0 0 612 792;" xml:space="preserve" viewBox="114.75 261.74 384 270.05">
<style type="text/css">
	.st0{fill:#8E8E93;}
</style>
<g>
	<path class="st0" d="M114.75,291c1.06-3.26,2.11-6.52,3.09-9.54c38.81,38.46,77.38,76.69,116.01,114.98   c-38.78,38.4-77.36,76.62-116.1,114.99c-0.78-2.33-1.89-5.63-3-8.92C114.75,432,114.75,361.5,114.75,291z"/>
	<path class="st0" d="M498.75,502.5c-1.06,3.26-2.13,6.51-3.12,9.54c-38.8-38.46-77.36-76.68-116-114.98   c38.86-38.46,77.51-76.71,116.2-115c0.79,2.42,1.85,5.68,2.91,8.94C498.75,361.5,498.75,432,498.75,502.5z"/>
	<path class="st0" d="M135.06,263.87c4.99-0.71,9.98-1.99,14.98-2.02c32.62-0.18,65.24-0.09,97.85-0.09   c71.61,0,143.22-0.04,214.83,0.09c5.24,0.01,10.49,1.26,15.73,1.93c0.06,0.45,0.12,0.9,0.19,1.35c-0.77,0.86-1.5,1.77-2.31,2.59   c-53.11,53.29-106.22,106.57-159.35,159.84c-6.41,6.43-14.01,6.43-20.41,0.01C243.44,374.28,190.33,321,137.21,267.72   c-0.78-0.78-1.51-1.62-2.26-2.43C134.99,264.81,135.02,264.34,135.06,263.87z"/>
	<path class="st0" d="M478.53,529.58c-4.86,0.72-9.71,2.01-14.58,2.07c-19.61,0.24-39.23,0.1-58.85,0.1   c-84.71,0-169.43-0.01-254.14,0.01c-5.54,0-10.93-0.54-16.19-3.22c38.74-38.37,77.32-76.56,115.95-114.82   c9.72,9.68,20.05,20.01,30.43,30.28c11.3,11.17,27.21,14.16,41.01,7.28c3.94-1.96,7.57-4.87,10.76-7.95   c9.35-9.02,18.4-18.35,27.58-27.55c0.95-0.95,1.94-1.86,2.42-2.31c38.68,38.32,77.18,76.45,115.67,114.58   C478.58,528.56,478.55,529.07,478.53,529.58z"/>
</g>
</svg>