<svg xmlns="http://www.w3.org/2000/svg" xmlns:xlink="http://www.w3.org/1999/xlink" version="1.1" id="Layer_1" x="0px" y="0px" style="enable-background:new 0 0 612 792;" xml:space="preserve" viewBox="158.75 224.8 297.39 352.28">
<style type="text/css">
	.st0{fill:#1571AC;}
</style>
<g>
	<path class="st0" d="M158.81,399.72c0-48.49-0.02-96.97,0.01-145.46c0.01-14.81,8.6-25.91,22.29-28.84   c2.53-0.54,5.21-0.58,7.82-0.59c79.35-0.03,158.71-0.03,238.06-0.02c17.09,0,29.1,11.82,29.11,28.92   c0.05,97.35,0.06,194.7,0,292.04c-0.01,21.02-17.98,33.88-37.98,27.27c-5.31-1.76-10.47-4.03-15.56-6.38   c-18.25-8.41-36.46-8.65-54.51,0.32c-26.88,13.37-53.67,13.51-80.6,0.18c-18.43-9.13-36.88-8.89-55.57-0.27   c-7.07,3.26-14.57,6.28-22.18,7.52c-15.78,2.58-30.25-9.9-30.72-25.88c-0.4-13.48-0.16-26.99-0.16-40.48   C158.8,471.95,158.81,435.83,158.81,399.72z M306.37,496.69c3.12,0,6.25,0,9.37,0c21-0.01,41.99,0.05,62.99-0.05   c6.7-0.03,11.76-5.06,12-11.42c0.24-6.39-4.43-11.66-11.07-12.42c-1.24-0.14-2.5-0.1-3.74-0.1c-46.11,0-92.23-0.01-138.34,0.02   c-1.86,0-3.77,0.08-5.58,0.47c-4.24,0.9-7.08,3.57-8.53,7.62c-2.87,8.04,2.96,15.84,12.04,15.86   C259.13,496.73,282.75,496.68,306.37,496.69z M307.04,344.81c-15.75,0-31.49,0-47.24,0c-8.5,0-17-0.09-25.49,0.07   c-5.86,0.11-10.51,4.35-11.44,9.98c-0.89,5.38,2.19,10.98,7.43,12.93c1.94,0.72,4.14,0.96,6.23,0.98   c9.62,0.1,19.24,0.04,28.87,0.04c36.87,0,73.73,0.02,110.6-0.04c2.45,0,5.05-0.24,7.33-1.06c5.21-1.89,8.25-7.65,7.27-12.99   c-1.07-5.85-5.91-9.86-12.32-9.88C354.53,344.78,330.79,344.82,307.04,344.81z M326.76,408.75c-16.86,0-33.73-0.01-50.59,0.01   c-7.96,0.01-13.42,4.9-13.44,11.97c-0.02,7.01,5.51,12.02,13.41,12.02c33.73,0.02,67.46,0.01,101.18,0   c7.95,0,13.4-4.91,13.41-11.98c0.01-7.07-5.45-12-13.38-12.01C360.49,408.74,343.62,408.75,326.76,408.75z M326.8,304.68   c0,0,0-0.01,0-0.01c17.36,0,34.72,0.06,52.09-0.03c5.71-0.03,10.04-3.62,11.47-8.99c1.33-5-0.82-10.69-5.58-13.1   c-2.34-1.19-5.23-1.77-7.88-1.78c-33.47-0.11-66.95-0.08-100.42-0.05c-1.61,0-3.27,0.13-4.82,0.53c-4.33,1.12-7.18,3.95-8.4,8.24   c-2.24,7.83,3.35,15.12,11.83,15.17C292.33,304.76,309.57,304.68,326.8,304.68z M246.73,420.75c0-6.53-5.35-11.93-11.87-11.98   c-6.69-0.05-12.18,5.46-12.09,12.14c0.09,6.41,5.67,11.88,12.09,11.83C241.38,432.68,246.73,427.28,246.73,420.75z M234.9,304.63   c6.6-0.07,11.86-5.37,11.83-11.94c-0.03-6.5-5.42-11.92-11.91-11.96c-6.5-0.05-12.18,5.74-12.05,12.27   C222.9,299.55,228.27,304.7,234.9,304.63z"/>
</g>
</svg>