<svg xmlns="http://www.w3.org/2000/svg" xmlns:xlink="http://www.w3.org/1999/xlink" version="1.1" id="Layer_1" x="0px" y="0px" style="enable-background:new 0 0 612 792;" xml:space="preserve" viewBox="101.8 242.23 408.78 309.41">
<style type="text/css">
	.st0{fill:#1571AC;}
</style>
<g>
	<path class="st0" d="M101.8,293.2c1.66-5.56,2.65-11.44,5.11-16.61c10.91-22.93,29.51-34.25,54.75-34.29   c67.45-0.12,134.89-0.04,202.34-0.04c29,0,58-0.08,87,0.03c22.68,0.08,40.22,9.6,51.99,29.17c4.24,7.05,7.11,14.82,7.23,22.98   c0.27,17.8,0.93,35.72-0.69,53.39c-2.37,25.82-27.07,47.58-53.03,48.29c-13.56,0.37-27.14,0.16-40.7,0.16   c-65.98,0.01-131.97,0.02-197.95-0.06c-2.94,0-4.86,0.76-6.67,3.16c-4,5.3-8.08,10.6-12.68,15.38c-8.67,9.02-22.85,8.78-31.21-0.52   c-4.52-5.03-8.27-10.74-12.55-15.99c-0.99-1.21-2.62-2.35-4.11-2.63c-25.95-4.74-43.8-22.72-48.16-48.66   c-0.11-0.64-0.44-1.24-0.67-1.85C101.8,327.8,101.8,310.5,101.8,293.2z M305.78,306.75c43.9,0,87.8,0,131.71,0   c1.46,0,2.94,0.07,4.39-0.09c7.98-0.85,12.9-8.55,10.26-15.99c-1.84-5.19-6.36-7.87-13.41-7.87c-88.34,0-176.67,0-265.01,0   c-1.2,0-2.41-0.04-3.59,0.1c-8,0.97-12.84,9.37-9.51,16.66c2.53,5.56,7.25,7.23,13.06,7.22   C217.71,306.72,261.75,306.75,305.78,306.75z M226.02,354.8c18.07,0,36.15,0.07,54.22-0.03c7.01-0.04,12.06-4.99,12.27-11.57   c0.19-6.24-4.62-11.49-11.29-12.23c-1.45-0.16-2.92-0.11-4.38-0.11c-24.85-0.01-49.71,0-74.56,0c-9.83,0-19.67-0.05-29.5,0.02   c-6.3,0.05-10.8,3.01-12.54,8.02c-2.76,7.95,2.8,15.8,11.56,15.86C189.87,354.89,207.94,354.8,226.02,354.8z"/>
	<path class="st0" d="M129.21,542.29c1.59-9.29,3.17-19.13,5.01-28.92c0.51-2.75,0.12-4.66-2.02-6.66   c-6.61-6.17-12.95-12.63-19.48-18.87c-2.89-2.76-4.78-5.84-3.56-9.9c1.22-4.07,4.44-5.6,8.46-6.13c8.95-1.19,17.87-2.64,26.83-3.83   c2.86-0.38,4.66-1.43,5.95-4.25c3.77-8.2,7.98-16.2,11.88-24.34c1.75-3.64,4.18-6.28,8.41-6.27c4.25,0.01,6.62,2.76,8.36,6.36   c3.86,8.01,8.01,15.9,11.69,23.99c1.42,3.12,3.46,4.17,6.61,4.58c8.96,1.15,17.88,2.6,26.82,3.84c3.73,0.52,6.56,2.1,7.85,5.79   c1.36,3.92-0.23,6.96-2.99,9.65c-6.87,6.67-13.8,13.28-20.51,20.11c-1.05,1.07-1.7,3.23-1.48,4.73c1.39,9.32,3.06,18.61,4.7,27.89   c0.67,3.77,0.35,7.26-2.91,9.74c-3.37,2.56-6.88,2.1-10.46,0.18c-8.31-4.46-16.62-8.92-25.06-13.1c-1.47-0.73-3.91-0.71-5.38,0.01   c-8.68,4.3-17.16,9.03-25.81,13.39C135.59,553.59,128.98,549.65,129.21,542.29z"/>
	<path class="st0" d="M400.43,542.12c1.58-9.4,3.17-19.5,5.06-29.55c0.46-2.43-0.06-3.9-1.79-5.54   c-6.76-6.4-13.35-12.97-20.04-19.44c-2.74-2.65-4.58-5.56-3.36-9.55c1.26-4.12,4.37-5.66,8.38-6.21   c8.95-1.21,17.87-2.64,26.82-3.84c2.83-0.38,4.69-1.32,6-4.2c3.74-8.21,7.95-16.21,11.88-24.34c1.74-3.6,4.14-6.33,8.38-6.33   c4.23,0,6.64,2.67,8.39,6.3c3.9,8.14,8.13,16.13,11.88,24.34c1.3,2.85,3.15,3.83,5.98,4.21c9.21,1.24,18.4,2.66,27.61,3.96   c3.59,0.51,6.34,2.16,7.52,5.65c1.23,3.63,0.09,6.77-2.63,9.41c-6.58,6.39-13.05,12.91-19.76,19.16c-2.39,2.23-3.17,4.31-2.5,7.63   c1.81,8.98,3.08,18.06,4.7,27.08c0.64,3.6-0.09,6.67-2.96,8.93c-3.04,2.39-6.38,2.27-9.73,0.51c-8.58-4.51-17.11-9.13-25.79-13.43   c-1.46-0.73-3.91-0.71-5.38,0.02c-8.68,4.3-17.16,9.02-25.81,13.4C406.71,553.63,400.3,549.78,400.43,542.12z"/>
	<path class="st0" d="M264.79,542.36c1.63-9.6,3.13-19.46,5.05-29.23c0.57-2.92-0.17-4.65-2.2-6.56   c-6.58-6.2-12.95-12.62-19.49-18.86c-2.91-2.78-4.64-5.9-3.35-9.94c1.25-3.9,4.33-5.38,8.19-5.91c8.82-1.2,17.6-2.66,26.43-3.78   c3.32-0.42,5.36-1.62,6.83-4.87c3.65-8.11,7.84-15.97,11.7-23.98c1.69-3.5,4.09-6.03,8.12-6.09c4.23-0.06,6.7,2.55,8.45,6.2   c3.91,8.13,8.13,16.13,11.88,24.33c1.37,2.99,3.3,3.98,6.31,4.37c8.96,1.16,17.87,2.61,26.82,3.84c3.87,0.53,6.9,2.09,8.1,6.01   c1.19,3.88-0.39,6.94-3.19,9.63c-6.81,6.54-13.63,13.07-20.23,19.82c-1.13,1.16-1.85,3.49-1.6,5.11   c1.42,9.59,3.18,19.12,4.84,28.68c0.62,3.58-0.28,6.68-3.24,8.84c-2.94,2.14-6.15,2.16-9.39,0.45   c-8.45-4.47-16.97-8.81-25.35-13.41c-2.4-1.32-4.26-1.21-6.61,0.07c-8.39,4.57-16.84,9.07-25.39,13.34   C270.97,553.64,264.46,549.47,264.79,542.36z"/>
</g>
</svg>