<svg xmlns="http://www.w3.org/2000/svg" xmlns:xlink="http://www.w3.org/1999/xlink" version="1.1" id="Layer_1" x="0px" y="0px" style="enable-background:new 0 0 612 792;" xml:space="preserve" viewBox="138.72 268.68 336.06 256.17">
<style type="text/css">
	.st0{fill:#8E8E93;}
</style>
<g>
	<path class="st0" d="M298.63,268.69c42.12,0,84.24-0.02,126.35,0.01c15.96,0.01,28.54,9.08,32.5,23.24   c5.66,20.27-8.53,39.57-30.02,40.81c-1.12,0.06-2.25,0.05-3.37,0.05c-83.61,0-167.22,0.01-250.83,0   c-15.79,0-27.64-7.72-32.54-21.14c-7.03-19.26,5.62-40.04,25.96-42.56c2.35-0.29,4.73-0.41,7.1-0.41   C215.4,268.68,257.02,268.69,298.63,268.69z"/>
	<path class="st0" d="M354.33,428.81c-28.73,0-57.46,0.06-86.19-0.02c-17.32-0.05-30.07-10.69-32.98-27.25   c-2.95-16.79,9.47-33.93,26.36-36.29c2.47-0.34,4.97-0.54,7.46-0.54c57.21-0.03,114.42-0.04,171.64-0.01   c17.95,0.01,30.77,10.42,33.72,27.25c2.95,16.82-9.45,33.93-26.35,36.29c-2.71,0.38-5.47,0.55-8.21,0.55   C411.29,428.83,382.81,428.81,354.33,428.81z"/>
	<path class="st0" d="M378.97,460.69c20.86,0,41.72-0.09,62.57,0.03c19.02,0.1,33.29,14.08,33.19,32.25   c-0.09,17.97-14.36,31.74-33.26,31.82c-26.48,0.11-52.96,0.03-79.44,0.03c-15.36,0-30.73,0.09-46.09-0.02   c-18.73-0.13-32.97-13.74-33.19-31.51c-0.22-18.37,14.06-32.46,33.25-32.56C337,460.61,357.99,460.69,378.97,460.69z"/>
	<path class="st0" d="M138.75,460.59c0-15.37,0.07-30.75-0.03-46.12c-0.04-6.65,2.14-12.03,8-15.47c6.02-3.53,11.88-2.65,17.7,0.85   c25.78,15.52,51.63,30.92,77.38,46.47c12.05,7.28,12.1,21.56,0.07,28.82c-25.97,15.69-51.99,31.3-78.07,46.8   c-12.08,7.18-25-0.37-25.03-14.48C138.72,491.84,138.75,476.21,138.75,460.59z"/>
</g>
</svg>