<svg xmlns="http://www.w3.org/2000/svg" xmlns:xlink="http://www.w3.org/1999/xlink" version="1.1" id="Layer_1" x="0px" y="0px" style="enable-background:new 0 0 612 792;" xml:space="preserve" viewBox="198.6 292.86 218.88 218.49">
<style type="text/css">
	.st0{fill:#1571AC;}
</style>
<g>
	<path class="st0" d="M225.35,393.64c0,3.21-0.05,6.43,0.01,9.64c0.68,40.33,29.81,74.07,69.56,80.6   c45.57,7.48,88.67-24.27,95.16-70.1c6.4-45.26-24.81-87.18-70.03-93.62c-21.49-3.06-41.39,1.63-59.28,14.09   c-4.11,2.86-8.33,4.57-13.31,2.97c-5.23-1.68-8.46-5.34-9.29-10.72c-0.83-5.4,1.23-9.82,5.67-13.02   c12.74-9.17,26.71-15.78,42.19-18.48c45.62-7.96,83.22,6.22,110.69,43.41c44.46,60.18,13.98,147.8-57.92,168.54   c-61.23,17.66-123.99-19.53-137.62-81.68c-4.89-22.28-2.75-44.04,5.8-65.16c3.74-9.23,15.53-11.59,22.13-4.17   c10.8,12.13,21.34,24.5,31.8,36.93c4.72,5.62,3.77,13.78-1.67,18.41c-5.6,4.76-13.59,4.28-18.62-1.3   c-4.3-4.76-8.41-9.69-12.61-14.54c-0.57-0.66-1.17-1.3-1.76-1.95C225.95,393.53,225.65,393.59,225.35,393.64z"/>
	<path class="st0" d="M294.62,380.68c0-7.08-0.09-14.15,0.03-21.23c0.1-6.23,3.95-11.28,9.57-12.9c5.57-1.61,11.46,0.47,14.75,5.22   c1.83,2.64,2.42,5.6,2.42,8.75c-0.01,11.24-0.06,22.48,0.07,33.72c0.01,1.31,0.69,2.9,1.59,3.85c4.95,5.17,10.08,10.17,15.13,15.25   c5.73,5.77,5.96,14.01,0.57,19.39c-5.4,5.4-13.62,5.21-19.38-0.52c-6.79-6.75-13.51-13.57-20.33-20.29   c-3.03-2.99-4.44-6.54-4.43-10.75C294.63,394.33,294.62,387.5,294.62,380.68z"/>
</g>
</svg>