<svg xmlns="http://www.w3.org/2000/svg" xmlns:xlink="http://www.w3.org/1999/xlink" version="1.1" id="Layer_1" x="0px" y="0px" style="enable-background:new 0 0 612 792;" xml:space="preserve" viewBox="189.76 297.84 234.61 192.14">
<g>
	<path d="M298.94,404.57c-25.63-0.28-48.26-3-69.9-11.47c-9.43-3.69-18.23-8.49-25.89-15.26c-17.73-15.67-17.87-37.3-0.29-53.11   c9.66-8.68,21.12-14.11,33.31-18.09c21.7-7.09,44.06-9.31,66.77-8.7c17.81,0.47,35.33,2.83,52.36,8.25   c11.65,3.71,22.7,8.68,32.25,16.5c6.7,5.49,12.11,11.98,14.4,20.51c3.07,11.45-0.32,21.38-7.86,30.07   c-8.18,9.43-18.8,15.28-30.2,19.79c-15.52,6.15-31.74,9.31-48.33,10.6C309.17,404.15,302.76,404.37,298.94,404.57z"/>
	<path d="M217.2,454.07c0.67,0.21,1.37,0.37,2.02,0.62c26.9,10.61,54.83,14.73,83.66,13.73c20.65-0.71,40.98-3.27,60.66-9.82   c16.7-5.56,32.18-13.32,44.44-26.32c3.91-4.15,7.11-8.97,10.69-13.56c3.99,5.58,6.06,12.11,5.65,19.3   c-0.66,11.69-7.11,20.19-15.81,27.22c-11.29,9.13-24.42,14.58-38.33,18.05c-37.56,9.37-75.02,9.13-112.18-2.16   c-12.27-3.73-23.75-9.24-33.37-17.97c-2.85-2.59-5.31-5.62-7.95-8.44C216.86,454.5,217.03,454.29,217.2,454.07z"/>
	<path d="M189.9,395.64c4.51,3.08,8.74,6.29,13.27,9c16.82,10.07,35.32,15.28,54.49,18.48c17.51,2.92,35.17,3.31,52.82,2.43   c25.39-1.27,50.08-6.03,72.9-17.84c6.76-3.5,13.03-7.93,19.65-12c-0.21,1.42-0.35,3.17-0.76,4.85   c-2.58,10.65-9.51,18.13-18.08,24.3c-12.37,8.91-26.44,13.91-41.14,17.28c-21.85,5-43.98,6.08-66.29,4.17   c-16.42-1.41-32.46-4.48-47.83-10.57c-11.24-4.46-21.71-10.19-29.92-19.34c-5.01-5.58-8.44-11.94-9.11-19.56   C189.87,396.43,189.9,396.04,189.9,395.64z"/>
</g>
</svg>