<svg xmlns="http://www.w3.org/2000/svg" xmlns:xlink="http://www.w3.org/1999/xlink" version="1.1" id="Layer_1" x="0px" y="0px" style="enable-background:new 0 0 612 792;" xml:space="preserve" viewBox="222.53 284.14 226.1 226.1">
<g id="qxSFP8_00000073682265858994761390000012986296086016215449_">
	<g>
		<path d="M282.93,315.22c-3.36,2.25-6.72,4.5-10.09,6.75c-3.85,2.58-7.69,5.17-11.58,7.7c-0.61,0.4-1.43,0.64-2.16,0.67    c-3.27,0.12-6.56-0.04-9.81,0.21c-6.3,0.49-11.3,6.19-11.33,12.67c-0.03,6.34,4.87,11.99,11.05,12.7    c0.98,0.11,1.98,0.18,2.97,0.18c48.82,0.01,97.65,0,146.47,0c5.93,0,11.85,0,17.78,0c0.49,0,0.97,0,1.52,0c0,8.78,0,17.42,0,26.16    c-18.49-7.19-36.97-7.55-55.41-0.39c-14.72,5.71-26.39,15.33-35.14,28.48c-17.22,25.89-17.16,62.53,5.75,89.46    c-0.37,0.04-0.67,0.11-0.97,0.11c-28.1,0-56.2,0.04-84.3-0.01c-12.23-0.02-22.92-9.35-24.77-21.47c-0.23-1.51-0.36-3.05-0.36-4.57    c-0.02-36.14-0.02-72.28-0.02-108.42c0-7.25,0-14.51,0-21.76c0.01-13.98,9.13-25.27,22.81-28.15c1.73-0.36,3.53-0.54,5.3-0.55    c10.53-0.05,21.05-0.02,31.58-0.02c0.2,0,0.4,0,0.59,0C282.86,315.05,282.89,315.13,282.93,315.22z"/>
		<path d="M330.41,451.11c0.02-32.59,26.56-59.09,59.15-59.09c32.68,0,59.13,26.59,59.07,59.4c-0.06,32.47-26.65,58.87-59.25,58.82    C356.85,510.18,330.39,483.65,330.41,451.11z M397.31,479.32c0-6.85,0-13.62,0-20.47c6.89,0,13.63,0,20.42,0    c0-5.17,0-10.24,0-15.45c-6.85,0-13.62,0-20.53,0c0-6.91,0-13.68,0-20.47c-5.17,0-10.21,0-15.37,0c0,6.85,0,13.62,0,20.52    c-6.9,0-13.67,0-20.49,0c0,5.19,0,10.26,0,15.46c6.86,0,13.64,0,20.51,0c0,6.87,0,13.61,0,20.42    C387.01,479.32,392.08,479.32,397.31,479.32z"/>
		<path d="M365.37,315.13c-3.02-4.94-5.93-9.75-8.9-14.53c-0.75-1.21-1.91-1.31-3.24-0.43c-5.55,3.69-11.08,7.4-16.62,11.1    c-14.35,9.59-28.69,19.19-43.06,28.75c-0.6,0.4-1.44,0.65-2.16,0.66c-8.33,0.04-16.66,0.03-24.99,0.03c-0.37,0-0.74,0-1.37,0    c0.4-0.34,0.61-0.55,0.86-0.71c26.29-17.57,52.57-35.15,78.87-52.71c8.63-5.76,19.57-3.41,24.98,5.41    c9.61,15.67,19.15,31.37,28.71,47.07c0.15,0.24,0.26,0.5,0.46,0.88c-0.46,0.03-0.81,0.07-1.15,0.07c-5.22,0-10.44-0.02-15.67,0.03    c-0.87,0.01-1.32-0.3-1.75-1.02c-1.36-2.32-2.79-4.59-4.26-7c-2.01,1.34-3.95,2.65-5.9,3.94c-2.03,1.35-3.92,3.2-6.16,3.88    c-2.2,0.67-4.76,0.17-7.17,0.17c-9.28,0-18.57,0-27.85,0c-0.44,0-0.88,0-1.32,0c-0.03-0.08-0.06-0.16-0.1-0.24    c6.26-4.2,12.52-8.41,18.79-12.61C352.66,323.64,358.95,319.43,365.37,315.13z"/>
	</g>
</g>
</svg>