<svg xmlns="http://www.w3.org/2000/svg" xmlns:xlink="http://www.w3.org/1999/xlink" version="1.1" id="Layer_1" x="0px" y="0px" style="enable-background:new 0 0 612 792;" xml:space="preserve" viewBox="198.37 295.21 213.3 202.7">
<style type="text/css">
	.st0{fill:#8E8E93;}
</style>
<g>
	<path class="st0" d="M242.72,337.89c-0.45-2.12-0.96-4.04-1.26-5.99c-2.2-14.54,5.58-28.42,19.12-34.16   c13.38-5.68,29.04-1.51,37.89,10.11c2.16,2.83,4.23,5.73,6.57,8.9c2.14-2.89,4.06-5.57,6.07-8.18   c8.3-10.78,19.26-15.35,32.54-12.55c13.06,2.75,21.23,11.18,24.56,24.15c1.33,5.2,1.01,10.4-0.42,15.55   c-0.18,0.63-0.31,1.28-0.53,2.17c7.39,0,14.61-0.08,21.83,0.04c2.47,0.04,5.01,0.28,7.39,0.93c8.59,2.35,14.68,10.17,15.11,19.05   c0.04,0.83,0.06,1.67,0.06,2.5c0,38.33-0.02,76.65,0.02,114.98c0.01,9.62-4.03,16.76-12.88,20.66c-2.8,1.23-6.12,1.77-9.21,1.78   c-56.41,0.1-112.81,0.09-169.22,0.06c-12.81-0.01-21.9-9.02-21.96-21.84c-0.07-16.41,0.01-32.83,0.02-49.24   c0.02-22.08,0.02-44.16,0.05-66.24c0.02-13.83,8.84-22.66,22.62-22.68C228.25,337.89,235.41,337.89,242.72,337.89z M358.35,389.42   c-5.84,4.22-11.48,8.29-17.28,12.48c-12.02-16.35-23.93-32.55-36.06-49.05c-12.14,16.51-24.05,32.71-36.05,49.04   c-5.81-4.2-11.45-8.27-17.27-12.48c7.36-10.03,14.6-19.89,21.95-29.91c-18.27,0-36.04,0-53.79,0c0,21.34,0,42.44,0,63.57   c56.9,0,113.59,0,170.36,0c0-21.31,0-42.43,0-63.62c-17.93,0-35.69,0-53.87,0C343.75,369.54,350.93,379.32,358.35,389.42z    M390.26,455.46c-56.98,0-113.67,0-170.46,0c0,7.05,0,13.92,0,20.83c56.91,0,113.65,0,170.46,0   C390.26,469.26,390.26,462.45,390.26,455.46z M262.41,327.27c0.02,5.88,4.78,10.64,10.64,10.62c5.84-0.02,10.58-4.81,10.56-10.7   c-0.02-5.88-4.81-10.66-10.64-10.63C267.12,316.58,262.4,321.38,262.41,327.27z M347.61,327.25c0.01-5.89-4.73-10.68-10.58-10.7   c-5.84-0.02-10.61,4.77-10.62,10.65c-0.01,5.89,4.72,10.67,10.58,10.68C342.84,337.9,347.6,333.13,347.61,327.25z"/>
</g>
</svg>