<svg xmlns="http://www.w3.org/2000/svg" xmlns:xlink="http://www.w3.org/1999/xlink" version="1.1" id="Layer_1" x="0px" y="0px" style="enable-background:new 0 0 612 792;" xml:space="preserve" viewBox="198.35 288.34 213.32 213.32">
<style type="text/css">
	.st0{fill:#1571AC;}
</style>
<path class="st0" d="M411.67,379.86v30.84c0,1.1-0.37,2.18-1.11,3.19c-0.74,1.02-1.66,1.62-2.77,1.8l-25.69,3.89  c-1.76,5-3.56,9.22-5.42,12.64c3.24,4.64,8.19,11.02,14.87,19.17c0.92,1.11,1.39,2.27,1.39,3.47c0,1.21-0.42,2.27-1.26,3.19  c-2.5,3.43-7.08,8.43-13.74,15c-6.67,6.58-11.03,9.86-13.06,9.86c-1.1,0-2.31-0.42-3.61-1.25l-19.17-15.01  c-4.07,2.14-8.28,3.89-12.64,5.29c-1.48,12.59-2.83,21.2-4.02,25.83c-0.66,2.59-2.32,3.89-5,3.89h-30.84c-1.3,0-2.43-0.39-3.4-1.17  c-0.97-0.79-1.5-1.78-1.59-2.99l-3.89-25.55c-4.55-1.49-8.71-3.2-12.51-5.14l-19.58,14.87c-0.93,0.83-2.09,1.25-3.47,1.25  c-1.3,0-2.46-0.51-3.47-1.53c-11.67-10.55-19.3-18.33-22.92-23.33c-0.65-0.92-0.97-1.99-0.97-3.19c0-1.11,0.36-2.18,1.11-3.2  c1.39-1.94,3.75-5.02,7.08-9.24c3.33-4.21,5.83-7.47,7.5-9.79c-2.5-4.63-4.41-9.21-5.7-13.74l-25.41-3.76  c-1.21-0.18-2.18-0.76-2.92-1.73c-0.75-0.97-1.11-2.06-1.11-3.26v-30.84c0-1.11,0.36-2.18,1.11-3.19c0.74-1.02,1.62-1.62,2.63-1.81  l25.84-3.89c1.3-4.25,3.1-8.52,5.42-12.77c-3.71-5.28-8.66-11.67-14.86-19.17c-0.93-1.11-1.4-2.22-1.4-3.33  c0-0.92,0.43-1.99,1.26-3.19c2.4-3.34,6.97-8.31,13.68-14.94c6.7-6.61,11.08-9.93,13.13-9.93c1.2,0,2.4,0.47,3.61,1.39l19.17,14.86  c4.07-2.13,8.28-3.89,12.64-5.28c1.48-12.59,2.83-21.2,4.03-25.84c0.64-2.59,2.31-3.89,4.99-3.89h30.84c1.3,0,2.43,0.39,3.4,1.18  c0.97,0.79,1.5,1.78,1.6,2.99l3.89,25.55c4.53,1.49,8.7,3.2,12.5,5.14l19.72-14.87c0.84-0.83,1.94-1.25,3.33-1.25  c1.21,0,2.37,0.47,3.47,1.39c11.95,11.02,19.59,18.89,22.92,23.61c0.65,0.75,0.97,1.76,0.97,3.06c0,1.11-0.37,2.18-1.11,3.19  c-1.39,1.94-3.75,5.03-7.08,9.24c-3.33,4.22-5.83,7.48-7.5,9.79c2.41,4.64,4.31,9.17,5.7,13.61l25.41,3.89  c1.21,0.19,2.18,0.77,2.92,1.74C411.3,377.58,411.67,378.66,411.67,379.86z M330.14,420.14c6.95-6.95,10.41-15.32,10.41-25.14  s-3.46-18.2-10.41-25.14c-6.95-6.95-15.32-10.42-25.14-10.42c-9.82,0-18.2,3.47-25.15,10.42c-6.94,6.94-10.41,15.32-10.41,25.14  s3.47,18.19,10.41,25.14c6.95,6.95,15.32,10.42,25.15,10.42C314.82,430.56,323.19,427.09,330.14,420.14z"/>
</svg>