<?xml version="1.0" encoding="UTF-8" standalone="no" ?>
<!DOCTYPE svg PUBLIC "-//W3C//DTD SVG 1.1//EN" "http://www.w3.org/Graphics/SVG/1.1/DTD/svg11.dtd">
<svg xmlns="http://www.w3.org/2000/svg" xmlns:xlink="http://www.w3.org/1999/xlink" version="1.1" width="1080" height="1080" viewBox="0 0 1080 1080" xml:space="preserve">
<desc>Created with Fabric.js 5.2.4</desc>
<defs>
</defs>
<g transform="matrix(1 0 0 1 540 540)" id="80cc10d9-a457-4b17-8607-fec28bdfcc33"  >
<rect style="stroke: none; stroke-width: 1; stroke-dasharray: none; stroke-linecap: butt; stroke-dashoffset: 0; stroke-linejoin: miter; stroke-miterlimit: 4; fill: rgb(255,255,255); fill-rule: nonzero; opacity: 1;" vector-effect="non-scaling-stroke"  x="-540" y="-540" rx="0" ry="0" width="1080" height="1080" />
</g>
<g transform="matrix(1 0 0 1 540 540)" id="9a662636-64cf-4e02-aedb-44e996564106"  >
</g>
<g transform="matrix(4.05 0 0 4.05 540.51 540.51)"  >
<path style="stroke: rgb(0,0,0); stroke-width: 0; stroke-dasharray: none; stroke-linecap: butt; stroke-dashoffset: 0; stroke-linejoin: miter; stroke-miterlimit: 4; fill: rgb(142,142,147); fill-rule: nonzero; opacity: 1;" vector-effect="non-scaling-stroke"  transform=" translate(-305.01, -395)" d="M 411.67 379.86 L 411.67 410.7 C 411.67 411.8 411.3 412.88 410.56 413.89 C 409.82 414.90999999999997 408.9 415.51 407.79 415.69 L 382.1 419.58 C 380.34000000000003 424.58 378.54 428.8 376.68 432.21999999999997 C 379.92 436.85999999999996 384.87 443.23999999999995 391.55 451.39 C 392.47 452.5 392.94 453.65999999999997 392.94 454.86 C 392.94 456.07 392.52 457.13 391.68 458.05 C 389.18 461.48 384.6 466.48 377.94 473.05 C 371.27 479.63 366.91 482.91 364.88 482.91 C 363.78 482.91 362.57 482.49 361.27 481.66 L 342.09999999999997 466.65000000000003 C 338.03 468.79 333.82 470.54 329.46 471.94000000000005 C 327.97999999999996 484.53000000000003 326.63 493.14000000000004 325.44 497.77000000000004 C 324.78 500.36 323.12 501.66 320.44 501.66 L 289.6 501.66 C 288.3 501.66 287.17 501.27000000000004 286.20000000000005 500.49 C 285.23 499.7 284.70000000000005 498.71000000000004 284.61000000000007 497.5 L 280.7200000000001 471.95 C 276.1700000000001 470.46 272.0100000000001 468.75 268.2100000000001 466.81 L 248.6300000000001 481.68 C 247.7000000000001 482.51 246.5400000000001 482.93 245.1600000000001 482.93 C 243.8600000000001 482.93 242.7000000000001 482.42 241.6900000000001 481.40000000000003 C 230.02000000000012 470.85 222.3900000000001 463.07000000000005 218.7700000000001 458.07000000000005 C 218.1200000000001 457.15000000000003 217.8000000000001 456.08000000000004 217.8000000000001 454.88000000000005 C 217.8000000000001 453.77000000000004 218.1600000000001 452.70000000000005 218.9100000000001 451.68000000000006 C 220.3000000000001 449.74000000000007 222.6600000000001 446.6600000000001 225.99000000000012 442.44000000000005 C 229.32000000000014 438.2300000000001 231.82000000000014 434.97 233.49000000000012 432.65000000000003 C 230.99000000000012 428.02000000000004 229.08000000000013 423.44000000000005 227.79000000000013 418.91 L 202.38000000000014 415.15000000000003 C 201.17000000000013 414.97 200.20000000000013 414.39000000000004 199.46000000000015 413.42 C 198.71000000000015 412.45 198.35000000000014 411.36 198.35000000000014 410.16 L 198.35000000000014 379.32000000000005 C 198.35000000000014 378.21000000000004 198.71000000000015 377.14000000000004 199.46000000000015 376.13000000000005 C 200.20000000000016 375.11000000000007 201.08000000000015 374.51000000000005 202.09000000000015 374.32000000000005 L 227.93000000000015 370.43000000000006 C 229.23000000000016 366.18000000000006 231.03000000000014 361.9100000000001 233.35000000000014 357.6600000000001 C 229.64000000000013 352.3800000000001 224.69000000000014 345.99000000000007 218.49000000000012 338.49000000000007 C 217.56000000000012 337.38000000000005 217.09000000000012 336.27000000000004 217.09000000000012 335.1600000000001 C 217.09000000000012 334.24000000000007 217.52000000000012 333.1700000000001 218.3500000000001 331.9700000000001 C 220.7500000000001 328.6300000000001 225.3200000000001 323.6600000000001 232.03000000000011 317.0300000000001 C 238.7300000000001 310.4200000000001 243.11000000000013 307.1000000000001 245.1600000000001 307.1000000000001 C 246.3600000000001 307.1000000000001 247.56000000000012 307.5700000000001 248.77000000000012 308.49000000000007 L 267.9400000000001 323.3500000000001 C 272.0100000000001 321.2200000000001 276.2200000000001 319.4600000000001 280.5800000000001 318.0700000000001 C 282.0600000000001 305.48000000000013 283.4100000000001 296.8700000000001 284.61000000000007 292.23000000000013 C 285.25000000000006 289.64000000000016 286.9200000000001 288.34000000000015 289.6000000000001 288.34000000000015 L 320.44000000000005 288.34000000000015 C 321.74000000000007 288.34000000000015 322.87000000000006 288.73000000000013 323.84000000000003 289.52000000000015 C 324.81000000000006 290.3100000000002 325.34000000000003 291.3000000000001 325.44000000000005 292.51000000000016 L 329.33000000000004 318.0600000000002 C 333.86 319.5500000000002 338.03000000000003 321.26000000000016 341.83000000000004 323.20000000000016 L 361.55000000000007 308.33000000000015 C 362.39000000000004 307.50000000000017 363.49000000000007 307.08000000000015 364.88000000000005 307.08000000000015 C 366.09000000000003 307.08000000000015 367.25000000000006 307.5500000000002 368.3500000000001 308.47000000000014 C 380.30000000000007 319.4900000000001 387.94000000000005 327.3600000000001 391.2700000000001 332.08000000000015 C 391.9200000000001 332.83000000000015 392.2400000000001 333.84000000000015 392.2400000000001 335.14000000000016 C 392.2400000000001 336.25000000000017 391.8700000000001 337.32000000000016 391.1300000000001 338.33000000000015 C 389.7400000000001 340.27000000000015 387.3800000000001 343.3600000000001 384.0500000000001 347.57000000000016 C 380.72000000000014 351.7900000000002 378.22000000000014 355.0500000000002 376.5500000000001 357.3600000000002 C 378.96000000000015 362.00000000000017 380.8600000000001 366.5300000000002 382.2500000000001 370.9700000000002 L 407.66000000000014 374.8600000000002 C 408.8700000000001 375.0500000000002 409.84000000000015 375.63000000000017 410.58000000000015 376.6000000000002 C 411.3 377.58 411.67 378.66 411.67 379.86 z M 330.14 420.14 C 337.09 413.19 340.55 404.82 340.55 395 C 340.55 385.18 337.09000000000003 376.8 330.14 369.86 C 323.19 362.91 314.82 359.44 305 359.44 C 295.18 359.44 286.8 362.91 279.85 369.86 C 272.91 376.8 269.44 385.18 269.44 395 C 269.44 404.82 272.91 413.19 279.85 420.14 C 286.8 427.09 295.17 430.56 305 430.56 C 314.82 430.56 323.19 427.09 330.14 420.14 z" stroke-linecap="round" />
</g>
</svg>